<svg version="1.1" viewBox="0.0 0.0 512.0 512.0" fill="none" stroke="none" stroke-linecap="square" stroke-miterlimit="10" xmlns:xlink="http://www.w3.org/1999/xlink" xmlns="http://www.w3.org/2000/svg"><clipPath id="p.0"><path d="m0 0l512.0 0l0 512.0l-512.0 0l0 -512.0z" clip-rule="nonzero"/></clipPath><g clip-path="url(#p.0)"><path fill="#000000" fill-opacity="0.0" d="m0 0l512.0 0l0 512.0l-512.0 0z" fill-rule="evenodd"/><path fill="#434343" d="m183.55905 188.53067l0 0c0 -13.336273 10.811188 -24.14746 24.14746 -24.14746l96.586975 0l0 0c6.404297 0 12.546295 2.544098 17.07483 7.0726166c4.528534 4.528534 7.072632 10.670532 7.072632 17.074844l0 270.7287c0 13.336273 -10.811188 24.14746 -24.14746 24.14746l-96.586975 0c-13.336273 0 -24.14746 -10.811188 -24.14746 -24.14746z" fill-rule="evenodd"/><defs><linearGradient id="p.1" gradientUnits="userSpaceOnUse" gradientTransform="matrix(17.431093247786873 0.0 0.0 17.431093247786873 0.0 0.0)" spreadMethod="pad" x1="10.728407642446141" y1="10.078200263126627" x2="10.728344118979837" y2="27.509293510797757"><stop offset="0.0" stop-color="#8c8c8c"/><stop offset="1.0" stop-color="#404040"/></linearGradient></defs><path fill="url(#p.1)" d="m187.00787 198.67238l0 0c0 -12.701355 10.296478 -22.997833 22.997833 -22.997833l91.98859 0l0 0c6.0993958 0 11.949005 2.4229736 16.261932 6.735901c4.3129272 4.3129425 6.735901 10.162521 6.735901 16.261932l0 257.84686c0 12.701355 -10.296478 22.997833 -22.997833 22.997833l-91.98859 0c-12.701355 0 -22.997833 -10.296478 -22.997833 -22.997833z" fill-rule="evenodd"/><path fill="#666666" d="m348.33105 63.288715l0 0c50.99283 50.99284 50.99283 133.66858 0 184.66142q-46.165375 46.165344 -92.33072 92.33072q-46.16536 -46.165375 -92.3307 -92.33072l0 0c-50.99285 -50.992844 -50.99285 -133.66858 0 -184.66142l0 0c50.99283 -50.992844 133.66856 -50.992844 184.66142 0z" fill-rule="evenodd"/><defs><linearGradient id="p.2" gradientUnits="userSpaceOnUse" gradientTransform="matrix(17.0868445215133 0.0 0.0 17.0868445215133 0.0 0.0)" spreadMethod="pad" x1="7.90088234980948" y1="2.073274241088614" x2="7.900820546687208" y2="19.160118762490146"><stop offset="0.0" stop-color="#8c8c8c"/><stop offset="1.0" stop-color="#404040"/></linearGradient></defs><path fill="url(#p.2)" d="m341.559 70.7088l0 0c47.25296 47.25296 47.25296 123.86514 0 171.1181q-42.77954 42.77954 -85.55907 85.55905q-42.779526 -42.77951 -85.55905 -85.55905l0 0c-47.25296 -47.25296 -47.25296 -123.86514 0 -171.1181l0 0c47.25296 -47.25296 123.86516 -47.25296 171.11812 0z" fill-rule="evenodd"/><path fill="#ffd25d" d="m206.62993 288.92154l0 0c0 -7.775635 6.3033905 -14.07901 14.07901 -14.07901l70.58211 0c3.7340088 0 7.3150635 1.4833069 9.955383 4.1236267c2.6403198 2.6403503 4.123657 6.221405 4.123657 9.955383l0 56.314392c0 7.775635 -6.303406 14.079041 -14.079041 14.079041l-70.58211 0c-7.7756195 0 -14.07901 -6.303406 -14.07901 -14.079041z" fill-rule="evenodd"/><path fill="#ffd25d" d="m206.62993 388.0895l0 0c0 -7.7756042 6.3033905 -14.07901 14.07901 -14.07901l70.58211 0c3.7340088 0 7.3150635 1.4833069 9.955383 4.123657c2.6403198 2.6403198 4.123657 6.2213745 4.123657 9.955353l0 56.314423c0 7.7756042 -6.303406 14.07901 -14.079041 14.07901l-70.58211 0c-7.7756195 0 -14.07901 -6.303406 -14.07901 -14.07901z" fill-rule="evenodd"/><path fill="#ffd25d" d="m206.62993 182.20485l0 0c0 -3.6065826 2.9237213 -6.530304 6.530304 -6.530304l26.120483 0l0 0c1.7319336 0 3.3929443 0.68800354 4.61763 1.912674c1.2246704 1.2246704 1.912674 2.8856812 1.912674 4.61763l0 71.41182c0 3.606598 -2.9237213 6.530304 -6.530304 6.530304l-26.120483 0c-3.6065826 0 -6.530304 -2.923706 -6.530304 -6.530304z" fill-rule="evenodd"/><path fill="#ffd25d" d="m206.62993 90.58559l0 0c0 -7.775635 6.3033905 -14.079025 14.07901 -14.079025l70.58211 0c3.7340088 0 7.3150635 1.4833221 9.955383 4.1236496c2.6403198 2.6403275 4.123657 6.221382 4.123657 9.955376l0 56.314392c0 7.775635 -6.303406 14.079025 -14.079041 14.079025l-70.58211 0c-7.7756195 0 -14.07901 -6.3033905 -14.07901 -14.079025z" fill-rule="evenodd"/><defs><linearGradient id="p.3" gradientUnits="userSpaceOnUse" gradientTransform="matrix(8.967150447941881 0.0 0.0 8.967150447941881 0.0 0.0)" spreadMethod="pad" x1="23.308170776115286" y1="8.75838092180039" x2="23.308138762211595" y2="17.72553136968512"><stop offset="0.0" stop-color="#fff6db"/><stop offset="1.0" stop-color="#fad25c"/></linearGradient></defs><path fill="url(#p.3)" d="m209.00787 91.9399l0 0c0 -7.401634 6.0002136 -13.401848 13.40184 -13.401848l67.18056 0c3.5544128 0 6.9632263 1.4119797 9.476532 3.9253082c2.5133362 2.5133362 3.9253235 5.9221497 3.9253235 9.47654l0 53.605766c0 7.4016266 -6.0002136 13.40184 -13.401855 13.40184l-67.18056 0l0 0c-7.4016266 0 -13.40184 -6.0002136 -13.40184 -13.40184z" fill-rule="evenodd"/><defs><linearGradient id="p.4" gradientUnits="userSpaceOnUse" gradientTransform="matrix(8.96714987626501 0.0 0.0 8.96714987626501 0.0 0.0)" spreadMethod="pad" x1="23.30817226206593" y1="30.87644251345615" x2="23.3081402481602" y2="39.84359238966401"><stop offset="0.0" stop-color="#fff6db"/><stop offset="1.0" stop-color="#fad25c"/></linearGradient></defs><path fill="url(#p.4)" d="m209.00787 290.27585l0 0c0 -7.4016113 6.0002136 -13.401825 13.40184 -13.401825l67.18056 0c3.5544128 0 6.9632263 1.4119568 9.476532 3.925293c2.5133362 2.5133362 3.9253235 5.9221497 3.9253235 9.476532l0 53.605774c0 7.401642 -6.0002136 13.401855 -13.401855 13.401855l-67.18056 0l0 0c-7.4016266 0 -13.40184 -6.0002136 -13.40184 -13.401855z" fill-rule="evenodd"/><defs><linearGradient id="p.5" gradientUnits="userSpaceOnUse" gradientTransform="matrix(8.967152162976499 0.0 0.0 8.967152162976499 0.0 0.0)" spreadMethod="pad" x1="23.308166318254077" y1="41.93545719105397" x2="23.30813201764954" y2="50.90260935396487"><stop offset="0.0" stop-color="#fff6db"/><stop offset="1.0" stop-color="#fad25c"/></linearGradient></defs><path fill="url(#p.5)" d="m209.00787 389.44385l0 0c0 -7.401642 6.0002136 -13.401855 13.40184 -13.401855l67.18056 0c3.5544128 0 6.9632263 1.4119873 9.476532 3.9253235c2.5133362 2.5133362 3.9253235 5.922119 3.9253235 9.476532l0 53.605743c0 7.401642 -6.0002136 13.401855 -13.401855 13.401855l-67.18056 0l0 0c-7.4016266 0 -13.40184 -6.0002136 -13.40184 -13.401855z" fill-rule="evenodd"/><path fill="#434343" d="m142.11023 390.5303l0 0c0 -3.6065674 2.9237213 -6.530304 6.530319 -6.530304l26.120468 0l0 0c1.7319489 0 3.3929596 0.6880188 4.61763 1.9126892c1.2246857 1.2246704 1.9126892 2.8856812 1.9126892 4.6176147l0 71.411835c0 3.6065674 -2.9237213 6.530304 -6.530319 6.530304l-26.120468 0c-3.606598 0 -6.530319 -2.9237366 -6.530319 -6.530304z" fill-rule="evenodd"/><defs><linearGradient id="p.6" gradientUnits="userSpaceOnUse" gradientTransform="matrix(8.967138442722037 0.0 0.0 8.967138442722037 0.0 0.0)" spreadMethod="pad" x1="16.100783285339638" y1="43.04956096053241" x2="16.100750128037856" y2="52.01669940319315"><stop offset="0.0" stop-color="#8c8c8c"/><stop offset="1.0" stop-color="#404040"/></linearGradient></defs><path fill="url(#p.6)" d="m144.37796 391.80588l0 0c0 -3.189087 2.5852814 -5.7743835 5.7743835 -5.7743835l23.096878 0l0 0c1.5314636 0 3.0002136 0.6083679 4.0831146 1.6912842c1.0829163 1.0829163 1.6912842 2.5516357 1.6912842 4.0830994l0 68.86069c0 3.189087 -2.5852814 5.7743835 -5.774399 5.7743835l-23.096878 0c-3.1891022 0 -5.7743835 -2.5852966 -5.7743835 -5.7743835z" fill-rule="evenodd"/><path fill="#434343" d="m330.70865 392.5618l0 0c0 -3.6065674 2.9237366 -6.530304 6.5303345 -6.530304l26.120453 0l0 0c1.7319641 0 3.3929749 0.6880188 4.6176453 1.9126892c1.2246704 1.2246704 1.9126892 2.8856812 1.9126892 4.6176147l0 71.411835c0 3.606598 -2.9237366 6.530304 -6.5303345 6.530304l-26.120453 0c-3.606598 0 -6.5303345 -2.923706 -6.5303345 -6.530304z" fill-rule="evenodd"/><defs><linearGradient id="p.7" gradientUnits="userSpaceOnUse" gradientTransform="matrix(8.96713844271996 0.0 0.0 8.96713844271996 0.0 0.0)" spreadMethod="pad" x1="37.13295830991495" y1="43.27610994001548" x2="37.132926295968396" y2="52.24324838267829"><stop offset="0.0" stop-color="#8c8c8c"/><stop offset="1.0" stop-color="#404040"/></linearGradient></defs><path fill="url(#p.7)" d="m332.97638 393.8374l0 0c0 -3.1891174 2.5852966 -5.774414 5.7743835 -5.774414l23.096893 0l0 0c1.5314636 0 3.0002136 0.6083679 4.0830994 1.6912842c1.0829163 1.0829163 1.6912842 2.5516663 1.6912842 4.08313l0 68.86066c0 3.189087 -2.585266 5.7743835 -5.7743835 5.7743835l-23.096893 0c-3.189087 0 -5.7743835 -2.5852966 -5.7743835 -5.7743835z" fill-rule="evenodd"/><path fill="#434343" d="m142.11023 291.8899l0 0c0 -3.606598 2.9237213 -6.530304 6.530319 -6.530304l26.120468 0l0 0c1.7319489 0 3.3929596 0.6880188 4.61763 1.9126892c1.2246857 1.2246704 1.9126892 2.8856812 1.9126892 4.6176147l0 71.411804c0 3.606598 -2.9237213 6.5303345 -6.530319 6.5303345l-26.120468 0c-3.606598 0 -6.530319 -2.9237366 -6.530319 -6.5303345z" fill-rule="evenodd"/><defs><linearGradient id="p.8" gradientUnits="userSpaceOnUse" gradientTransform="matrix(8.967138442722037 0.0 0.0 8.967138442722037 0.0 0.0)" spreadMethod="pad" x1="16.100783285339638" y1="32.049349401674895" x2="16.100750128037856" y2="41.01648784433563"><stop offset="0.0" stop-color="#8c8c8c"/><stop offset="1.0" stop-color="#404040"/></linearGradient></defs><path fill="url(#p.8)" d="m144.37796 293.16547l0 0c0 -3.1891174 2.5852814 -5.7743835 5.7743835 -5.7743835l23.096878 0l0 0c1.5314636 0 3.0002136 0.6083679 4.0831146 1.6912842c1.0829163 1.0829163 1.6912842 2.5516357 1.6912842 4.0830994l0 68.86066c0 3.1891174 -2.5852814 5.774414 -5.774399 5.774414l-23.096878 0c-3.1891022 0 -5.7743835 -2.5852966 -5.7743835 -5.774414z" fill-rule="evenodd"/><path fill="#434343" d="m330.70865 291.8899l0 0c0 -3.606598 2.9237366 -6.530304 6.5303345 -6.530304l26.120453 0l0 0c1.7319641 0 3.3929749 0.6880188 4.6176453 1.9126892c1.2246704 1.2246704 1.9126892 2.8856812 1.9126892 4.6176147l0 71.411804c0 3.606598 -2.9237366 6.5303345 -6.5303345 6.5303345l-26.120453 0c-3.606598 0 -6.5303345 -2.9237366 -6.5303345 -6.5303345z" fill-rule="evenodd"/><defs><linearGradient id="p.9" gradientUnits="userSpaceOnUse" gradientTransform="matrix(8.96713844271996 0.0 0.0 8.96713844271996 0.0 0.0)" spreadMethod="pad" x1="37.13295830991495" y1="32.04934940168232" x2="37.132926295968396" y2="41.016487844345136"><stop offset="0.0" stop-color="#8c8c8c"/><stop offset="1.0" stop-color="#404040"/></linearGradient></defs><path fill="url(#p.9)" d="m332.97638 293.16547l0 0c0 -3.1891174 2.5852966 -5.7743835 5.7743835 -5.7743835l23.096893 0l0 0c1.5314636 0 3.0002136 0.6083679 4.0830994 1.6912842c1.0829163 1.0829163 1.6912842 2.5516357 1.6912842 4.0830994l0 68.86066c0 3.1891174 -2.585266 5.774414 -5.7743835 5.774414l-23.096893 0c-3.189087 0 -5.7743835 -2.5852966 -5.7743835 -5.774414z" fill-rule="evenodd"/><path fill="#ffd25d" d="m263.81104 181.1891l0 0c0 -3.6065826 2.923706 -6.530304 6.530304 -6.530304l26.120483 0l0 0c1.7319336 0 3.3929443 0.68800354 4.6176147 1.912674c1.2246704 1.2246704 1.9126892 2.8856812 1.9126892 4.61763l0 71.41182c0 3.606598 -2.9237366 6.530304 -6.530304 6.530304l-26.120483 0c-3.606598 0 -6.530304 -2.923706 -6.530304 -6.530304z" fill-rule="evenodd"/><path fill="#ffd25d" d="m157.65617 126.732414l0 0c0 -3.6065903 2.9237213 -6.5303116 6.530304 -6.5303116l26.120483 0l0 0c1.7319489 0 3.3929596 0.68801117 4.61763 1.9126816c1.2246704 1.2246704 1.912674 2.8856812 1.912674 4.61763l0 71.41181c0 3.606598 -2.9237213 6.530319 -6.530304 6.530319l-26.120483 0c-3.6065826 0 -6.530304 -2.9237213 -6.530304 -6.530319z" fill-rule="evenodd"/><path fill="#ffd25d" d="m315.16272 126.732414l0 0c0 -3.6065903 2.9237366 -6.5303116 6.5303345 -6.5303116l26.120453 0l0 0c1.7319641 0 3.3929749 0.68801117 4.6176453 1.9126816c1.2246704 1.2246704 1.9126892 2.8856812 1.9126892 4.61763l0 71.41181c0 3.606598 -2.9237366 6.530319 -6.5303345 6.530319l-26.120453 0c-3.606598 0 -6.5303345 -2.9237213 -6.5303345 -6.530319z" fill-rule="evenodd"/></g></svg>